<?xml version="1.0" encoding="UTF-8" standalone="no"?>
<svg
   xmlns:dc="http://purl.org/dc/elements/1.1/"
   xmlns:cc="http://creativecommons.org/ns#"
   xmlns:rdf="http://www.w3.org/1999/02/22-rdf-syntax-ns#"
   xmlns:svg="http://www.w3.org/2000/svg"
   xmlns="http://www.w3.org/2000/svg"
   xmlns:sodipodi="http://sodipodi.sourceforge.net/DTD/sodipodi-0.dtd"
   xmlns:inkscape="http://www.inkscape.org/namespaces/inkscape"
   viewBox="0 0 755.07 298.37"
   version="1.1"
   id="svg116"
   sodipodi:docname="logo-white.svg"
   inkscape:version="0.92.4 (5da689c313, 2019-01-14)">
  <metadata
     id="metadata120">
    <rdf:RDF>
      <cc:Work
         rdf:about="">
        <dc:format>image/svg+xml</dc:format>
        <dc:type
           rdf:resource="http://purl.org/dc/dcmitype/StillImage" />
        <dc:title>logo</dc:title>
      </cc:Work>
    </rdf:RDF>
  </metadata>
  <sodipodi:namedview
     pagecolor="#ffffff"
     bordercolor="#666666"
     borderopacity="1"
     objecttolerance="10"
     gridtolerance="10"
     guidetolerance="10"
     inkscape:pageopacity="0"
     inkscape:pageshadow="2"
     inkscape:window-width="3840"
     inkscape:window-height="2080"
     id="namedview118"
     showgrid="false"
     inkscape:zoom="1"
     inkscape:cx="392.5"
     inkscape:cy="192.5"
     inkscape:window-x="5749"
     inkscape:window-y="-11"
     inkscape:window-maximized="1"
     inkscape:current-layer="svg116" />
  <defs
     id="defs68">
    <style
       id="style66">.cls-1{fill:#666;}</style>
  </defs>
  <title
     id="title70">logo</title>
  <path
     style="fill:#ffffff;fill-opacity:1;stroke-width:0.95911014"
     d="M 83.537109 7.7421875 C 83.537109 7.7421875 41.835996 114.73032 34.273438 133.66016 C 26.710881 152.59001 15.101967 178.57705 5.3730469 221.93555 C 4.9479508 224.40118 4.0199398 228.32033 6.3691406 226.11133 C 6.3691406 226.11133 9.573485 223.24281 13.859375 219.61133 C 18.343515 216.41501 22.888358 213.53849 27.474609 210.94727 C 27.362406 208.87514 27.610218 204.40522 27.976562 201.99414 C 27.479971 202.29312 26.981639 202.63648 26.482422 203.00977 C 24.102949 204.6569 21.541654 206.63103 19.953125 208.12891 C 14.759683 189.32849 30.707866 157.15383 38.804688 133.99414 C 38.804688 133.99414 39.346939 132.58817 45.126953 117.86133 C 50.906967 103.1345 78.006851 73.71361 97.080078 81.558594 L 110.74414 117.70898 C 111.26287 118.95903 111.72352 120.34188 112.21289 121.8457 C 112.65564 123.24794 112.88681 124.70274 112.89844 126.16797 C 112.95734 127.60002 112.54718 129.01512 111.72461 130.21094 C 110.92993 131.28247 109.84665 132.12665 108.5918 132.6543 C 107.25436 133.22699 105.83577 133.60612 104.38281 133.78125 C 102.85746 133.97085 101.32128 134.06432 99.783203 134.0625 L 99.783203 135.94336 C 103.95909 135.94336 107.2862 135.91221 109.76562 135.84961 C 112.24179 135.78381 114.29912 135.72595 115.93359 135.66016 L 120.43555 135.47266 C 121.80576 135.40686 123.46833 135.37891 125.42578 135.37891 C 127.38322 135.37891 129.04776 135.37876 130.41797 135.47266 L 134.91992 135.66016 C 136.55439 135.72596 138.51254 135.78382 140.79297 135.84961 C 143.07339 135.91541 146.17495 135.94336 150.08984 135.94336 L 150.08984 134.0625 C 145.39197 134.0625 141.67402 132.93543 138.93359 130.67969 C 136.19317 128.42396 133.71259 124.53942 131.49414 119.02539 L 87.255859 7.7421875 L 83.537109 7.7421875 z M 78.056641 31.238281 L 94.658203 75.158203 C 82.033988 72.44272 64.634319 83.150198 53.179688 96.361328 L 78.056641 31.238281 z M 738.77344 103.625 C 743.76968 107.88825 746.89338 114.00434 745.25391 121.12891 C 741.86656 135.84911 718.04012 158.89735 681.69531 172.38867 C 621.51233 194.72882 522.21928 190.53289 437.41406 183.87891 L 430.57812 187.49805 C 487.33659 193.00651 744.70943 210.45984 748.35156 121.1582 C 748.71881 112.1537 741.31217 104.80243 738.77344 103.625 z M 199.49414 159.00391 C 176.13327 159.00891 152.80593 160.64218 129.67383 164.63672 C 99.562896 169.8349 69.932197 179.06594 43.316406 193.50195 L 43.298828 193.48438 L 42.011719 194.19922 C 41.850984 196.95268 42.066946 201.67562 42.498047 204.44531 C 44.159727 202.93463 47.405666 201.45321 50.111328 200.4375 L 46.933594 197.19336 C 64.092417 187.80706 90.395692 175.54019 118.5957 169.64648 C 164.03778 160.13478 210.76153 160.36084 256.85938 164.70312 C 306.71094 169.41001 362.81381 179.52527 413.45898 185.60742 L 419.54297 182.43164 C 419.49477 182.42764 419.44467 182.42362 419.39648 182.41992 C 365.79185 177.72046 322.97149 168.93231 269.51367 163.14258 C 246.24944 160.62367 222.85502 158.99928 199.49414 159.00391 z "
     id="path72" />
  <path
     style="fill:#ffffff;fill-opacity:1;stroke-width:0.95911014"
     d="m 265.38308,32.507445 c -2.35491,5.450996 -5.85303,10.378132 -10.27658,14.474686 -4.2758,4.165797 -9.45549,7.374951 -15.1702,9.398908 v 1.879782 h 11.15782 v 56.017129 c -0.0221,3.10063 0.33912,6.19283 1.07621,9.21166 0.65614,2.76474 1.9249,5.36124 3.71991,7.61275 1.88174,2.28212 4.34209,4.06208 7.14544,5.1694 3.61245,1.35915 7.47497,1.9987 11.3528,1.87978 5.60482,0 10.13994,-1.22222 13.60462,-3.66594 3.15923,-2.14157 5.85214,-4.85546 7.92727,-7.98907 3.05964,-3.99649 2.87268,-10.73049 2.30918,-12.17269 0.62399,5.44732 -1.99191,9.50973 -3.14019,10.92798 -1.1483,1.41826 -4.01512,3.95466 -6.11754,5.39895 -2.15319,1.48503 -5.06037,2.23775 -8.71101,2.23775 -2.53019,0.14477 -5.03064,-0.58596 -7.04795,-2.05969 -1.75575,-1.4458 -3.07372,-3.31895 -3.81549,-5.42272 -0.89198,-2.44107 -1.41971,-4.9911 -1.56748,-7.5742 -0.19574,-2.80087 -0.29247,-5.63986 -0.29247,-8.51593 V 58.260821 H 287.8937 V 55.441148 H 267.53742 V 32.507445 Z"
     id="path76"
     inkscape:connector-curvature="0"
     sodipodi:nodetypes="ccccccccccccczcccccscccccc" />
  <path
     style="fill:#ffffff;fill-opacity:1;stroke-width:0.95911014"
     d="m 317.84337,71.419219 a 15.30722,14.699893 0 0 0 -0.97872,-5.733334 7.6829715,7.3781431 0 0 0 -2.74042,-3.289618 9.3957358,9.0229521 0 0 0 -4.11064,-1.409836 42.926768,41.223612 0 0 0 -5.2851,-0.281967 v -1.879782 a 100.80842,96.808757 0 0 0 14.77871,-2.255738 116.87904,112.24176 0 0 0 14.77871,-4.323498 v 71.102744 a 15.003816,14.408527 0 0 0 0.97872,5.82732 7.6536098,7.3499464 0 0 0 2.74043,3.19563 9.3957358,9.0229521 0 0 0 4.11063,1.40984 42.926768,41.223612 0 0 0 5.2851,0.28196 v 1.87978 q -4.69787,0 -7.63403,-0.094 c -1.95745,-0.0658 -3.66043,-0.12219 -5.08936,-0.18798 l -4.11063,-0.18798 c -1.31149,-0.0658 -2.80894,-0.094 -4.50213,-0.094 -1.69319,0 -3.3668,0 -4.59999,0.094 l -4.01277,0.18798 c -1.43872,0.0658 -3.13191,0.12218 -5.08935,0.18798 -1.95745,0.0658 -4.50213,0.094 -7.63404,0.094 v -1.87978 a 42.926768,41.223612 0 0 0 5.2851,-0.28196 9.3957358,9.0229521 0 0 0 4.11064,-1.40984 7.7221204,7.4157387 0 0 0 2.74042,-3.19563 15.179986,14.577707 0 0 0 0.97872,-5.82732 z"
     id="path4684"
     inkscape:connector-curvature="0" />
  <path
     style="fill:#ffffff;fill-opacity:1;stroke-width:0.95911014"
     d="M 406.70717,6.1703082 C 395.00038,6.0691022 386.74467,10.671382 380.87234,17.751893 375,24.832404 372.06384,34.262275 372.06384,46.04224 v 12.031337 h -12.52651 v 2.819672 h 12.52651 v 62.407281 c 0.0909,1.98622 -0.24211,3.9704 -0.97873,5.82843 -0.57907,1.29343 -1.52844,2.4022 -2.73927,3.19599 -1.23597,0.77332 -2.64533,1.2563 -4.11178,1.40984 -1.75398,0.19832 -3.51751,0.29139 -5.28358,0.28087 v 1.87978 c 3.13191,0 5.67545,-0.0278 7.63289,-0.0936 1.95745,-0.0658 3.65178,-0.12146 5.0905,-0.18725 l 4.01238,-0.18908 c 1.23319,-0.094 2.90605,-0.0936 4.59924,-0.0936 1.69319,0 3.19025,0.0278 4.50174,0.0936 l 4.11178,0.18908 c 1.42893,0.0658 3.13115,0.12145 5.08859,0.18725 1.95745,0.0627 4.50289,0.0936 7.6348,0.0936 v -1.87978 c -1.76607,0.0105 -3.53151,-0.0825 -5.28548,-0.28087 -1.46646,-0.15354 -2.8739,-0.63652 -4.10987,-1.40984 -1.21344,-0.79106 -2.16542,-1.90063 -2.74119,-3.19599 -0.73485,-1.84212 -1.06798,-3.8099 -0.97872,-5.7807 V 60.939143 h 26.81737 c 1.47288,0.0028 2.94403,0.0977 4.40426,0.282701 1.34921,0.138116 2.65173,0.553837 3.8174,1.220757 1.56625,0.956875 2.66075,2.483157 3.03365,4.229509 0.33699,1.83049 0.50082,3.686879 0.48936,5.545723 v 51.130427 c 0.0909,1.98622 -0.2421,3.96857 -0.97872,5.82659 -0.57907,1.29343 -1.53035,2.4022 -2.74118,3.196 -1.23597,0.77331 -2.64342,1.25629 -4.10988,1.40983 -1.75397,0.19832 -3.51941,0.29323 -5.28548,0.2827 v 1.87979 c 3.13191,0 5.67736,-0.0278 7.6348,-0.0936 1.95745,-0.0658 3.64987,-0.12328 5.08859,-0.18907 l 4.01238,-0.18725 c 1.23319,-0.094 2.90795,-0.0936 4.60114,-0.0936 1.69319,0 3.19026,0.0278 4.50175,0.0936 l 4.10987,0.18725 c 1.42893,0.0658 3.13305,0.12328 5.0905,0.18907 1.95744,0.0627 4.50098,0.0936 7.63289,0.0936 v -1.87979 c -1.76607,0.0105 -3.5315,-0.0844 -5.28548,-0.2827 -1.46646,-0.15354 -2.8739,-0.63652 -4.10987,-1.40983 -1.21344,-0.79106 -2.16542,-1.90064 -2.74119,-3.196 -0.7415,-1.85676 -1.07474,-3.8401 -0.97872,-5.82659 V 53.561367 c -4.79601,1.620382 -9.74555,2.784422 -14.77833,3.476862 -4.95991,0.682807 -9.9627,1.029802 -14.97331,1.035348 h -25.2518 v -10.3388 c -0.007,-5.006485 0.15659,-9.800662 0.48936,-14.381063 0.237,-4.114083 0.99364,-8.185727 2.25182,-12.124959 0.95138,-3.164855 1.95782,-4.887142 4.46516,-7.135084 2.34893,-2.005101 6.06629,-3.401598 10.24217,-3.401598 3.7844,0 6.46729,0.253223 9.80853,0.906472 8.83658,2.453692 14.0548,9.039088 15.26004,15.901043 1.2637,7.194824 -1.75732,14.026083 -6.75357,18.289322 2.53873,-1.177426 10.59272,-10.816641 9.57695,-18.884096 -1.01577,-8.067454 -5.13319,-15.695365 -17.52525,-19.6477568 -2.42889,-0.523333 -3.18209,-1.031136 -9.61518,-1.086749 z"
     id="path80"
     inkscape:connector-curvature="0"
     sodipodi:nodetypes="sssccccccccccsccscccccccccccccccccccccsccscccccccccccccccccscscscs" />
  <path
     style="fill:#ffffff;fill-opacity:1;stroke-width:0.95911014"
     d="m 512.56641,52.957031 c -4.4674,0.04269 -9.96191,0.751025 -18.56641,5.029297 -20.89944,11.052938 -23.65031,30.907326 -23.66016,36.322266 -0.05,0.72611 -0.008,1.995076 -0.0215,2.722656 -0.11999,6.00414 0.97715,11.97434 3.23047,17.57617 3.92686,9.63982 11.93179,17.22341 22.02148,20.86524 5.13078,1.84519 10.57026,2.76972 16.04883,2.72656 2.96341,-0.002 5.90954,-0.30578 8.79102,-0.90039 -25.97738,13.97356 -57.78874,27.71191 -72.76954,34.76367 -24.41109,11.4908 -66.90454,33.31925 -100.42578,49.86133 -33.52125,16.54208 -67.92358,31.83487 -104.32226,41.46875 -34.59784,9.14514 -71.32952,13.04513 -106.98438,7.89453 -17.49982,-2.43878 -33.9658,-5.89698 -50.570309,-14.47461 -16.604506,-8.57763 -33.780834,-20.78128 -41.826172,-39.08789 -10.990413,-30.61401 3.914096,-48.87442 24.310547,-54.18555 10.367839,-2.69973 20.647162,-0.65065 28.992187,4.58594 l 2.785156,-0.71484 c -9.208081,-7.23761 -22.07114,-10.52023 -36.908203,-5.83399 -29.626947,9.35757 -35.700885,40.79266 -32.52539,58.31445 7.124174,39.30989 51.869881,56.23769 93.328124,60.3711 105.10322,10.47884 221.82903,-53.57064 325.28125,-104.39453 24.81922,-12.17153 96.25857,-40.69744 109.5332,-57.67188 -0.72709,-1.36693 -1.76668,-3.04222 -2.39453,-4.62695 -4.337,5.35575 -12.2478,10.72544 -16.43554,13.08789 -4.18774,2.36244 -12.14284,5.67031 -13.95899,6.14844 -2.8056,0.7386 -5.70627,1.09885 -8.61523,1.07031 -8.21782,0.19377 -15.98291,-3.60725 -20.65039,-10.10547 -5.1546,-6.73589 -7.73243,-16.0226 -7.73243,-27.865233 0.0153,-0.35135 -0.009,-1.244593 0.0117,-1.595703 0.0944,-11.52827 2.66419,-20.604588 7.72266,-27.214844 4.66748,-6.498216 12.43257,-10.297291 20.65039,-10.103516 2.90905,-0.02795 5.80776,0.333063 8.61328,1.072266 2.43563,0.641233 4.77085,1.590004 6.94727,2.820312 1.90127,1.080684 3.70402,2.316278 5.38476,3.69336 1.39908,1.135661 2.70687,2.370148 3.91406,3.693359 l 1.3711,-1.316406 c -3.86795,-4.655364 -8.83328,-8.360142 -14.48633,-10.808594 -4.61098,-2.011596 -7.40725,-3.04433 -11.88086,-3.115234 -1.33824,-0.02587 -2.71399,-0.0865 -4.20312,-0.07227 z"
     id="path4851" />
  <path
     style="fill:#ffffff;fill-opacity:1;stroke-width:0.95911014"
     d="m 109.19562,192.99916 -1.52581,-0.41549 c 1.24528,5.58902 1.31493,11.50687 0.0221,17.33157 1.72009,-5.36974 2.23478,-11.18981 1.5037,-16.91608 z"
     id="path82"
     inkscape:connector-curvature="0" />
  <path
     style="fill:#ffffff;fill-opacity:1;stroke:none;stroke-width:0.95911014"
     d="m 598.92291,52.80872 c -5.99996,-0.05408 -11.94179,1.132336 -17.42203,3.478698 -5.26344,2.25983 -10.01712,5.484257 -13.99458,9.49253 -3.99101,4.027984 -7.14654,8.749162 -9.29787,13.911123 -2.2431,5.37822 -3.3735,11.12463 -3.32803,16.91803 -0.11125,6.109229 1.15718,12.169059 3.718,17.762469 2.28015,4.9375 5.57605,9.38145 9.68973,13.06485 3.97362,3.50528 8.6305,6.22049 13.70212,7.98907 5.1081,1.80814 10.50988,2.73114 15.95394,2.72605 3.83437,0.0433 7.65603,-0.43126 11.3528,-1.40983 3.20803,-0.86529 6.29677,-2.09602 9.20037,-3.66594 2.55713,-1.37763 4.95215,-3.016 7.14353,-4.8867 1.8431,-1.58111 3.57615,-3.27668 5.18799,-5.07578 l -1.37059,-1.31621 c -1.17447,1.14039 -2.54392,2.41289 -4.10987,3.81646 -1.70512,1.49844 -3.57627,2.81273 -5.57987,3.91928 -2.32124,1.27654 -4.7832,2.30106 -7.34042,3.05464 -3.04803,0.86925 -6.21613,1.2877 -9.39535,1.24095 -8.29452,0.20352 -16.20257,-3.364 -21.33501,-9.62471 -5.48083,-6.41005 -8.22165,-15.65522 -8.22165,-27.735949 0,-1.81399 0.0677,-3.62769 0.19499,-5.57326 0.12723,-1.94557 0.32259,-3.80648 0.58685,-5.56408 0.27437,-1.86275 0.10304,-1.28286 0.39187,-2.81967 0.51546,-2.62543 1.20019,-5.477902 2.05493,-8.554477 0.85362,-3.081227 2.17258,-6.025773 3.91489,-8.739883 1.75947,-2.753092 4.13338,-5.096777 6.95046,-6.861938 3.29423,-1.925772 7.10742,-2.874137 10.96093,-2.726051 3.36861,-0.141092 6.7056,0.676338 9.59224,2.349727 2.41272,1.505897 4.42403,3.534226 5.87234,5.922047 1.45333,2.421695 2.47845,5.058062 3.03365,7.801828 0.51155,2.386621 0.795,4.813128 0.84683,7.249277 0.13641,1.98234 -0.1879,4.14994 -1.73187,5.05742 -2.3749,1.39586 -27.6965,6.626466 -40.78671,16.884189 0.30622,2.99343 0.43851,3.83181 0.71083,5.53574 18.11629,-13.289977 26.87575,-14.856279 35.53017,-17.059619 8.65442,-2.20334 17.36552,-2.84051 22.29652,-3.10053 0.26948,-1.04889 0.40429,-2.24795 0.43774,-3.84585 h 0.008 c 0.2717,-4.24651 -1.30856,-8.710262 -3.11967,-11.943219 -4.11219,-7.284303 -10.92383,-12.819312 -19.08509,-15.508199 -4.24318,-1.440702 -8.71218,-2.172125 -13.21276,-2.162483 z"
     id="path84"
     inkscape:connector-curvature="0"
     sodipodi:nodetypes="cccccccccccccccccccscccccccccccsccsccccccc" />
  <path
     style="fill:#ffffff;fill-opacity:1;stroke-width:0.95911014"
     d="m 674.08765,51.681585 c -4.10633,1.729007 -8.32188,3.203769 -12.62399,4.416753 -4.32046,1.207673 -8.74095,2.057798 -13.21276,2.538807 v 1.879781 c 3.267,-0.118482 6.50812,0.594156 9.39536,2.067026 2.47942,1.378507 3.718,4.511475 3.718,9.398909 v 51.317669 c 0.091,1.98622 -0.24211,3.9704 -0.97872,5.82843 -0.57908,1.29343 -1.52845,2.4022 -2.73928,3.19599 -1.23597,0.77332 -2.64532,1.2563 -4.11178,1.40984 -1.75398,0.19832 -3.51751,0.29139 -5.28358,0.28087 v 1.87978 c 3.13192,0 5.67545,-0.0278 7.63289,-0.0936 1.95745,-0.0658 3.65178,-0.12146 5.09051,-0.18725 l 4.01238,-0.18908 c 1.23319,-0.094 2.90604,-0.0936 4.59923,-0.0936 1.69319,0 3.19025,0.0278 4.50174,0.0936 l 4.11178,0.18908 c 1.42893,0.0658 3.13115,0.12145 5.08859,0.18725 1.95745,0.0627 4.50289,0.0936 7.6348,0.0936 v -1.87978 c -1.76606,0.0105 -3.5315,-0.0826 -5.28548,-0.28087 -1.46646,-0.15354 -2.8739,-0.63652 -4.10987,-1.40984 -1.21344,-0.79106 -2.16542,-1.90063 -2.74119,-3.19599 -0.73484,-1.84212 -1.06798,-3.8099 -0.97872,-5.7807 L 677.6489,85.631471 c 0.0439,-3.01292 0.60529,-5.99852 1.66306,-8.835342 1.0725,-3.070235 2.5895,-5.982001 4.50366,-8.648097 1.69699,-2.324676 4.3696,-5.839593 6.83385,-7.568691 2.46425,-1.7291 5.16379,-3.267054 8.51794,-3.939464 3.35414,-0.672411 6.63052,-0.573747 9.69739,0.126664 8.83658,2.453692 14.05289,9.039088 15.25813,15.901044 1.2637,7.194826 -1.75542,14.024236 -6.75166,18.287486 2.53873,-1.17743 10.31937,-9.98689 9.3036,-18.054349 -1.01577,-8.067454 -5.22304,-16.218546 -17.6151,-20.170939 -6.62022,-2.252655 -16.33467,0.379802 -21.07884,4.337817 -4.74418,3.958016 -8.64987,9.060416 -11.15209,14.728016 -0.13702,-3.264553 -0.43102,-6.741783 -0.88124,-10.432421 -0.3745,-3.266004 -0.99638,-6.502241 -1.85995,-9.68161 z"
     id="path86"
     inkscape:connector-curvature="0" />
  <path
     inkscape:connector-curvature="0"
     style="fill:#ffffff;fill-opacity:1;stroke-width:0.95911014"
     d="m 181.21295,51.681142 c -4.10633,1.729007 -8.32188,3.203769 -12.62399,4.416753 -4.32045,1.207673 -8.74095,2.057798 -13.21276,2.538807 v 1.879782 c 3.267,-0.118483 6.50812,0.594155 9.39536,2.067025 2.47943,1.378507 3.718,4.511476 3.718,9.398912 v 51.317669 c 0.0909,1.98622 -0.24211,3.9704 -0.97872,5.82843 -0.57907,1.29343 -1.52845,2.4022 -2.73928,3.19599 -1.23597,0.77332 -2.64532,1.2563 -4.11178,1.40984 -1.75398,0.19831 -3.51751,0.29139 -5.28358,0.28087 v 1.87978 c 3.13192,0 5.67545,-0.0278 7.63289,-0.0936 1.95745,-0.0658 3.65178,-0.12145 5.09051,-0.18724 l 4.01238,-0.18908 c 1.23319,-0.094 2.90604,-0.0936 4.59923,-0.0936 1.69319,0 3.19025,0.0278 4.50174,0.0936 l 4.11178,0.18908 c 1.42894,0.0658 3.13115,0.12145 5.08859,0.18724 1.95745,0.0627 4.50289,0.0936 7.6348,0.0936 v -1.87978 c -1.76606,0.0105 -3.5315,-0.0825 -5.28548,-0.28087 -1.46646,-0.15354 -2.8739,-0.63652 -4.10987,-1.40984 -1.21344,-0.79106 -2.16541,-1.90064 -2.74119,-3.19599 -0.73484,-1.84212 -1.06798,-3.8099 -0.97872,-5.7807 L 184.7742,85.631031 c 0.0439,-3.01292 0.60529,-5.99852 1.66306,-8.835345 1.0725,-3.070238 2.5895,-5.982001 4.50366,-8.648097 1.69699,-2.324675 4.3696,-5.839593 6.83386,-7.568691 2.46424,-1.729099 5.16378,-3.267054 8.51793,-3.939464 3.35415,-0.672411 6.63052,-0.573747 9.69739,0.126664 8.83658,2.453692 14.05289,9.039088 15.25813,15.901043 1.2637,7.19483 -1.75542,14.02424 -6.75166,18.28748 2.53873,-1.17743 10.31937,-9.98689 9.3036,-18.054341 -1.01577,-8.067455 -5.22304,-16.218546 -17.6151,-20.17094 -6.62022,-2.252655 -16.33467,0.379802 -21.07884,4.337818 -4.74418,3.958015 -8.64987,9.060416 -11.15209,14.728018 -0.13702,-3.264556 -0.43102,-6.741786 -0.88123,-10.432424 -0.37451,-3.266004 -0.99639,-6.502241 -1.85996,-9.68161 z"
     id="path86-0" />
  <path
     style="fill:#ffffff;fill-opacity:1;stroke:none;stroke-opacity:1"
     d="m 322.55893,22.775847 c 0.73033,11.493888 2.11649,12.833788 12.75685,12.75685 -10.63326,0.792182 -12.74468,5.766303 -12.75684,12.756845 -0.44911,-6.964843 -2.72854,-11.923841 -12.75685,-12.75685 9.9775,-0.07479 11.61024,-1.224729 12.75684,-12.756845 z"
     id="rect4809"
     inkscape:connector-curvature="0"
     sodipodi:nodetypes="ccccc" />
  <path
     style="fill:#ffffff;fill-opacity:1;stroke:none;stroke-width:1px;stroke-linecap:butt;stroke-linejoin:miter;stroke-opacity:1"
     d="M 179.91016 170.03125 C 140.70703 170.2271 84.237865 179.70821 42.466797 198.58984 C 42.653802 199.57219 42.48557 200.17309 42.574219 201.24609 C 81.618973 184.0887 132.07845 173.46682 188.07812 175.23828 C 244.9699 177.03796 313.37972 189.3791 377.57422 203.67188 L 381.16016 201.85156 C 314.86185 186.32954 243.97635 172.025 188.60547 170.15039 C 186.99028 170.09569 185.3365 170.05889 183.64844 170.04102 C 182.42082 170.02801 181.17477 170.02493 179.91016 170.03125 z M 693.53516 195.01758 C 679.8292 233.9077 622.6031 248.1563 566.2168 243.74023 C 537.24941 241.47156 470.71183 223.20887 396.25391 205.41992 L 392.96094 207.14844 C 464.99114 223.67829 529.9459 241.84233 564.68359 249.07812 C 632.46111 263.19606 684.27146 237.40316 693.53516 195.01758 z "
     id="path4843" />
  <path
     style="fill:#ffffff;fill-opacity:1;stroke:none;stroke-width:1px;stroke-linecap:butt;stroke-linejoin:miter;stroke-opacity:1"
     d="M 131.51953 184.55273 C 105.30645 184.66778 73.115464 187.41443 42.878906 201.14648 L 43.072266 203.1875 C 85.712256 185.43767 130.88134 188.27952 160.08008 188.91797 C 204.64579 189.89243 263.05031 216.35862 309.63867 237.0625 L 312.04102 235.96484 C 264.35227 215.96226 204.86883 187.35863 160.24805 185.31836 C 151.72436 184.92862 142.02193 184.50664 131.51953 184.55273 z M 443.4043 236.88086 C 445.45145 257.88407 410.62593 260.64978 368.4043 254.7793 C 355.74005 253.01846 338.97759 247.0314 319.97266 239.25977 L 317.33984 240.46484 C 336.37786 248.87468 353.13686 255.99365 365.52148 259.38281 C 415.96538 273.18724 448.18145 260.75115 443.4043 236.88086 z "
     id="path4839" />
</svg>
